<svg xmlns="http://www.w3.org/2000/svg" version="1.1" x="0" y="0" viewBox="0 0 450.1 449.9" enable-background="new 0 0 450.1 449.9" preserveAspectRatio="none" height="40" width="40"><path d="M18.8 206.1c-3.7 0-6.5 0.1-9.3 0 -5.6-0.3-9.4-3.6-9.4-9 -0.1-25.2-0.1-50.3 0-75.5 0-5 3.4-8.4 8.4-9.1 1.8-0.2 3.7-0.1 5.5-0.1 40.3 0 80.7 0 121 0 1.9 0 3.8 0 6.7 0 -5.4-5.8-10.2-10.6-14.5-15.7 -8.7-10.2-16.1-21.2-20.3-34.1 -10.9-33.1 7.8-60.8 42.6-62.4 32.6-1.5 55.1 14.1 69.8 42.4 2 3.9 3.7 8 5.8 12.7 2.3-5 4-9.4 6.3-13.6 14.8-27.7 37.2-42.9 69.4-41.5 4.6 0.2 9.3 1 13.8 2.2 24.5 6.7 37.1 30.6 29.9 56.4 -5.6 19.9-18 35.4-32.3 49.6 -0.9 0.9-1.9 1.8-3.9 3.7 2.9 0.1 4.7 0.3 6.5 0.3 40.7 0 81.3 0 122 0 10.7 0 13.4 2.7 13.4 13.2 0 22.3 0 44.7 0 67 0 11-2.4 13.5-13.5 13.6 -1.5 0-3 0-5.3 0 0 2.4 0 4.4 0 6.5 0 74.7 0 149.3 0 224 0 10.7-2.6 13.3-13.2 13.3 -128.7 0-257.3 0-386 0 -10.6 0-13.2-2.6-13.2-13.3 0-74.5 0-149 0-223.5C18.8 211 18.8 208.9 18.8 206.1zM187.2 206.8c-50 0-99.6 0-149.3 0 0 74.9 0 149.3 0 224 49.9 0 99.4 0 149.3 0C187.2 356 187.2 281.6 187.2 206.8zM412.2 430.8c0-74.9 0-149.4 0-224.1 -49.9 0-99.4 0-149.2 0 0 74.8 0 149.4 0 224.1C312.8 430.8 362.2 430.8 412.2 430.8zM19.2 186.9c56.2 0 112 0 167.9 0 0-18.8 0-37.1 0-55.5 -56.2 0-111.9 0-167.9 0C19.2 150 19.2 168.3 19.2 186.9zM262.9 186.9c56.2 0 112 0 167.8 0 0-18.7 0-37.1 0-55.5 -56.2 0-111.9 0-167.8 0C262.9 150 262.9 168.2 262.9 186.9zM243.6 430.8c0-75 0-149.4 0-224.1 -12.4 0-24.7 0-37 0 0 74.9 0 149.4 0 224.1C219 430.8 231.1 430.8 243.6 430.8zM234.7 112.3c8.1 0 15.7-0.7 23 0.1 16 1.9 28.4-4.5 39.3-15.4 2.4-2.4 4.8-4.6 7.1-7.1 9.8-10.8 19.3-22 22.3-36.6 3.6-17.6-2.3-29.4-17.1-33.1 -12.1-3-24.3-2.7-35.4 3.5 -6.3 3.5-12.6 7.9-17.1 13.4C239 58.8 236 85 234.7 112.3zM215.5 111.9c-0.5-6.6-0.8-12.7-1.5-18.8 -1.9-16.6-5.5-32.8-14.3-47.3C187.9 26.3 170.8 17 147.9 19c-14.7 1.3-23.5 8.8-24.8 21.4 -0.8 7.6 0.1 14.9 3.5 21.9 9.3 19 23.2 34 40.6 45.7 2.6 1.7 5.6 3.7 8.5 3.8C188.7 112.1 201.6 111.9 215.5 111.9zM243.7 131.5c-12.7 0-24.9 0-37.1 0 0 18.6 0 36.8 0 55.1 12.5 0 24.7 0 37.1 0C243.7 168.1 243.7 150 243.7 131.5z"/></svg>