<svg xmlns="http://www.w3.org/2000/svg" version="1.1" x="0" y="0" viewBox="0 0 394.3 452.6" enable-background="new 0 0 394.3 452.6" preserveAspectRatio="none" height="40" width="35"><path d="M300.4 396.1c9 0 17.5 0 25.9 0 7.8 0 11.6 3.6 11.8 11.6 0.2 11.2 0.2 22.3 0 33.5 -0.1 7.5-3.5 10.9-11 11.4 -1.5 0.1-3 0-4.5 0 -83.6 0-167.3 0-250.9 0 -2.3 0-4.7-0.1-7-0.4 -4.9-0.7-7.9-3.8-7.9-8.7 -0.2-12.7-0.2-25.3 0-38 0.1-5.8 4.1-9.2 10.2-9.3 4.5-0.1 9 0 13.5 0 4.3 0 8.7 0 13.7 0 0-7.4 0.1-14.7-0.1-21.9 0-1-1.8-2.2-3-3C47 341.9 17.9 301.6 6 250.1 -9.8 181.9 5.8 120.7 52.4 68.2 84 32.5 124.2 11.3 171.6 5.4c58.2-7.3 110.1 8.4 154.5 47 36.4 31.7 58.6 71.8 65.7 119.4 9.1 60.8-6.7 115-46.1 162.3 -12.1 14.5-26.5 26.6-42.3 37.1 -1.4 0.9-2.8 3-2.9 4.5C300.2 382.2 300.4 388.7 300.4 396.1zM207 358.5c1.3 0.1 1.9 0.3 2.6 0.3 25 0 50 0.1 75-0.1 2.2 0 4.6-1 6.4-2.2 50.8-33.3 79.2-80.5 83.9-140.8 3.9-49.1-11.1-92.9-42.8-130.8C286.8 30.9 210.8 8.9 144 30.6 59.3 58.1 7.7 141.5 21.3 230.5c8.3 54.3 36.4 96.4 82.5 126.3 2.1 1.3 4.9 2 7.4 2 23.8 0.1 47.7 0.1 71.5 0.1 1.6 0 3.2-0.2 5-0.3 0-12.6 0-24.8 0-37.4 -2.2 0-4 0-5.8 0 -24.7 0-49.3 0-74 0 -5.2 0-10.3-0.1-12.6-5.8 -2.3-5.9 1.2-9.7 5.3-13.3 12.2-10.9 24.3-21.8 36.4-32.7 1.3-1.1 2.8-2 4.2-3 -0.4-0.4-0.7-0.9-1.1-1.3 -4.8 0-9.6 0-14.4 0 -4.3 0-7.8-1.3-9.7-5.6 -1.9-4.2-0.6-7.8 2.2-11 4.4-5 8.7-10.1 13.1-15.1 6.8-7.9 13.5-15.8 20.5-23.9 -12.9-1.9-15.6-7.6-9.4-18.4 6.2-10.8 12.5-21.6 18.7-32.4 9-15.6 17.9-31.1 27-46.7 3.6-6.1 9.6-8 14.6-4.2 1.9 1.4 3.3 3.7 4.5 5.8 15.3 26.3 30.4 52.7 45.8 79 4.8 8.2 2.1 14.9-7.2 16.3 -0.9 0.1-1.8 0.2-3.4 0.4 11.5 13.4 22.5 26.3 33.8 38.9 3 3.4 4.3 6.9 2.6 10.9 -1.7 4.3-5.4 6-10.1 5.9 -4.9-0.1-9.8 0-15.9 0 2.3 2.1 3.5 3.4 4.8 4.6 12.3 11.2 24.7 22.4 37.1 33.4 3.8 3.4 6.2 7.1 4.3 12.2 -2 5.3-6.5 5.9-11.5 5.9 -24.8-0.1-49.7 0-74.5 0 -1.9 0-3.9 0-6.1 0C207 334 207 346.1 207 358.5zM145.1 246.1c7.1 0 13.1 0.1 19 0 4.7-0.1 8.7 1.2 10.6 5.8 1.9 4.8 0 8.6-3.7 11.9 -12.7 11.3-25.2 22.8-37.8 34.2 -1.3 1.1-2.5 2.3-4.4 4.1 46 0 90.8 0 137.3 0 -2.5-2-3.9-3.1-5.2-4.3 -12.5-11.3-24.9-22.6-37.5-33.8 -3.7-3.3-5.8-7.1-3.9-11.9 1.9-4.9 6.1-6.1 11-6 5.9 0.1 11.8 0 18.7 0 -5.5-6.4-10.1-11.8-14.7-17.2 -6.5-7.6-13.1-15.1-19.6-22.7 -2.8-3.3-3.9-7-1.9-11.1 1.9-3.9 5.2-5.4 9.4-5.2 2.1 0.1 4.2 0 7.2 0 -11-19-21.6-37.3-32.5-56.2 -11.1 19.3-21.6 37.5-32.4 56.2 2.2 0 3.6 0.1 4.9 0 4.9-0.3 9.5 0.4 11.7 5.5 2.2 5-0.3 8.8-3.5 12.6C167.2 220.3 156.6 232.7 145.1 246.1zM75.6 433.5c81.5 0 162.4 0 243.3 0 0-6.3 0-12.2 0-18.2 -81.2 0-162.1 0-243.3 0C75.6 421.4 75.6 427.3 75.6 433.5zM281.5 377.9c-56.3 0-112.1 0-168.1 0 0 6.1 0 11.9 0 17.7 56.2 0 112 0 168.1 0C281.5 389.7 281.5 384.1 281.5 377.9z"/></svg>