<svg version="1.1" xmlns="http://www.w3.org/2000/svg" x="0" y="0" viewBox="0 0 79 79" enable-background="new 0 0 79 79" xml:space="preserve" height="35" width="35"><path d="M39.5 0C28.9 0 19 4.1 11.6 11.6 -3.9 27-3.9 52 11.6 67.4 19 74.9 28.9 79 39.5 79S60 74.9 67.4 67.4C82.8 52 82.8 27 67.4 11.6 60 4.1 50 0 39.5 0zM64 33.5L41.6 55.8c-0.6 0.6-1.4 0.9-2.1 0.9s-1.5-0.3-2.1-0.9L15 33.5c-1.2-1.2-1.2-3.1 0-4.2 1.2-1.2 3.1-1.2 4.2 0l20.2 20.2 20.2-20.2c1.2-1.2 3.1-1.2 4.2 0C65.1 30.4 65.1 32.3 64 33.5z" transform="rotate(180 39.5 40)" /></svg>